<svg width="20.25" height="9.86" viewBox="0 0 21 11" fill="none" xmlns="http://www.w3.org/2000/svg">
<path d="M10.5643 10.1276C10.7693 10.1152 10.9641 10.0364 11.1177 9.90364L20.3177 1.83965C20.4083 1.76071 20.482 1.66513 20.5345 1.55841C20.5871 1.45168 20.6175 1.33592 20.624 1.21772C20.6306 1.09952 20.6131 0.981226 20.5726 0.86962C20.5321 0.758013 20.4694 0.655281 20.3881 0.567321C20.3068 0.479361 20.2084 0.407904 20.0987 0.357034C19.9889 0.306164 19.8699 0.27688 19.7486 0.270874C19.6272 0.264867 19.5058 0.282245 19.3913 0.32202C19.2768 0.361795 19.1715 0.423189 19.0815 0.502667L10.4996 8.02764L1.9177 0.502667C1.82764 0.423188 1.72235 0.361796 1.60788 0.32202C1.4934 0.282245 1.372 0.264867 1.25061 0.270874C1.12923 0.27688 1.01026 0.30615 0.900514 0.35702C0.79077 0.40789 0.692414 0.479361 0.611081 0.567321C0.529749 0.655281 0.46704 0.758013 0.426548 0.86962C0.386057 0.981227 0.368579 1.09951 0.375117 1.21771C0.381654 1.3359 0.412079 1.45168 0.464646 1.55841C0.517213 1.66513 0.590891 1.76071 0.681454 1.83965L9.88145 9.90364C9.97394 9.9838 10.0821 10.045 10.1994 10.0835C10.3167 10.1219 10.4408 10.137 10.5643 10.1276V10.1276Z" fill="black"/>
</svg>
